<svg width="64px" height="64px" viewBox="0 0 64 64" version="1.1" xmlns="http://www.w3.org/2000/svg">
    <polygon fill="#0087D0" fill-rule="nonzero" points="0 0 64 0 64 64 0 64"/>
    <path fill="#FFFFFF" d="M16,8 L16,12 L8,12 L8,16 L16,16 L16,20 L8,20 L8,24 L16,24 L16,28 L4,28 L4,8 L16,8 Z M20,20 L20,24 L16,24 L16,20 L20,20 Z M20,12 L20,16 L16,16 L16,12 L20,12 Z M36,8 L36,12 L28,12 L28,16 L36,16 L36,20 L40,20 L40,28 L36,28 L36,24 L32,24 L32,20 L28,20 L28,28 L24,28 L24,8 L36,8 Z M40,12 L40,16 L36,16 L36,12 L40,12 Z M48,24 L56,24 L56,28 L44,28 L44,8 L56,8 L56,12 L48,12 L48,16 L52,16 L52,20 L48,20 L48,24 Z M16,36 L16,56 L12,56 L12,48 L8,48 L8,56 L4,56 L4,36 L16,36 Z M12,44 L12,40 L8,40 L8,44 L12,44 Z M24,36 L24,44 L28,44 L28,48 L24,48 L24,56 L20,56 L20,36 L24,36 Z M36,52 L36,56 L32,56 L32,52 L36,52 Z M48,36 L48,44 L56,44 L56,36 L60,36 L60,48 L48,48 L48,56 L44,56 L44,52 L40,52 L40,48 L36,48 L36,44 L40,44 L40,40 L44,40 L44,36 L48,36 Z M32,48 L32,52 L28,52 L28,48 L32,48 Z M32,40 L32,44 L28,44 L28,40 L32,40 Z M36,36 L36,40 L32,40 L32,36 L36,36 Z"/>
</svg>
